# xmcd
#
# Track frame offsets:
#	150
#	25780
#	62737
#	98161
#	148826
#	190126
#	209722
#	228212
#	245554
#
# Disc length: 4065 seconds
#
# Revision: 0
# Processed by: cddbd v1.5.2PL0 Copyright (c) Steve Scherf et al.
# Submitted via: EasyCDDAExtractor 11.0.0.1
#
DISCID=7f0fdf09
DTITLE=Banda CUSM - Enche Este Lugar
DYEAR=2008
DGENRE=Gospel
TTITLE0=Enche Este Lugar
TTITLE1=Pra Tua Glória
TTITLE2=Aos Pés de Cristo
TTITLE3=É Tua a Honra
TTITLE4=Volta Amigo
TTITLE5=Jesus Parou aos 33 Agora é a Nossa Vez
TTITLE6=Noiva
TTITLE7=Quem Vai Chorar
TTITLE8=Deserto
EXTD=
EXTT0=
EXTT1=
EXTT2=
EXTT3=
EXTT4=
EXTT5=
EXTT6=
EXTT7=
EXTT8=
PLAYORDER=
